HIERARCHY
ROOT Hips
{
  OFFSET 196.326 95.9168 97.7182
  CHANNELS 6 Xposition Yposition Zposition Zrotation Xrotation Yrotation
  JOINT LeftUpLeg
  {
    OFFSET 8.64259 1.95398 -2.38835
    CHANNELS 3 Zrotation Xrotation Yrotation
    JOINT LeftLeg
    {
      OFFSET 43.7702 0 0
      CHANNELS 3 Zrotation Xrotation Yrotation
      JOINT LeftFoot
      {
        OFFSET 40.6238 0 0
        CHANNELS 3 Zrotation Xrotation Yrotation
        JOINT LeftToeBase
        {
          OFFSET 12.7242 0 0
          CHANNELS 3 Zrotation Xrotation Yrotation
          End Site
          {
            OFFSET 0 0 0
          }
        }
      }
    }
  }
  JOINT RightUpLeg
  {
    OFFSET -8.2249 1.95398 -2.59336
    CHANNELS 3 Zrotation Xrotation Yrotation
    JOINT RightLeg
    {
      OFFSET 43.5653 0 0
      CHANNELS 3 Zrotation Xrotation Yrotation
      JOINT RightFoot
      {
        OFFSET 40.6238 0 0
        CHANNELS 3 Zrotation Xrotation Yrotation
        JOINT RightToeBase
        {
          OFFSET 12.7242 0 0
          CHANNELS 3 Zrotation Xrotation Yrotation
          End Site
          {
            OFFSET 0 0 0
          }
        }
      }
    }
  }
  JOINT Spine
  {
    OFFSET 0.165834 0.87714 6.61349
    CHANNELS 3 Zrotation Xrotation Yrotation
    JOINT Spine1
    {
      OFFSET 7.38963 1.71661e-005 0
      CHANNELS 3 Zrotation Xrotation Yrotation
      JOINT Spine2
      {
        OFFSET 11.9445 1.14441e-005 0
        CHANNELS 3 Zrotation Xrotation Yrotation
        JOINT Spine3
        {
          OFFSET 14.7254 4.19617e-005 0
          CHANNELS 3 Zrotation Xrotation Yrotation
          JOINT Spine4
          {
            OFFSET 10.9679 0 0
            CHANNELS 3 Zrotation Xrotation Yrotation
            JOINT RightShoulder
            {
              OFFSET 2.46616 -1.6653 3.69651
              CHANNELS 3 Zrotation Xrotation Yrotation
              JOINT RightArm
              {
                OFFSET 13.0012 0 0
                CHANNELS 3 Zrotation Xrotation Yrotation
                JOINT RightForeArm
                {
                  OFFSET 28.7848 1.52588e-005 0
                  CHANNELS 3 Zrotation Xrotation Yrotation
                  JOINT RightHand
                  {
                    OFFSET 26.5688 1.52588e-005 0
                    CHANNELS 3 Zrotation Xrotation Yrotation
                    End Site
                    {
                      OFFSET 0 0 0
                    }
                  }
                }
              }
            }
            JOINT LeftShoulder
            {
              OFFSET 2.38034 -1.29275 -3.75231
              CHANNELS 3 Zrotation Xrotation Yrotation
              JOINT LeftArm
              {
                OFFSET 16.3182 6.10351e-005 0
                CHANNELS 3 Zrotation Xrotation Yrotation
                JOINT LeftForeArm
                {
                  OFFSET 27.0901 0 0
                  CHANNELS 3 Zrotation Xrotation Yrotation
                  JOINT LeftHand
                  {
                    OFFSET 24.5451 1.52588e-005 0
                    CHANNELS 3 Zrotation Xrotation Yrotation
                    End Site
                    {
                      OFFSET 0 0 0
                    }
                  }
                }
              }
            }
            JOINT Neck
            {
              OFFSET 5.0226 -0.0266342 0
              CHANNELS 3 Zrotation Xrotation Yrotation
              JOINT Head
              {
                OFFSET 6.69363 2.86102e-005 0
                CHANNELS 3 Zrotation Xrotation Yrotation
                End Site
                {
                  OFFSET 0 0 0
                }
              }
            }
          }
        }
      }
    }
  }
}
MOTION
Frames:	14
Frame Time:	0.0416667
45.8056 91.461 1.96479 97.6211 -85.1428 101.767 -174.269 1.81136 87.3715 -38.9237 15.8169 0.93897 63.0723 11.8368 18.1613 69.3884 32.5982 -21.3984 -176.4 27.479 91.5323 -27.9531 -8.96635 -3.93516 63.9025 -1.70054 -0.907594 61.8521 4.97261 12.5968 -1.09446 7.65457 -90.6497 11.5599 -2.48159 -1.04218 -0.108927 -2.52505 -0.93189 -22.6553 -2.05363 -1.73998 -2.64269 -2.05363 -1.73998 79.6782 -52.5149 -115.376 25.2259 -2.2174 18.1722 -8.39546 -10.2897 -41.3324 -9.21322 -0.794319 4.62105 -104.073 -41.8364 54.4411 -24.2837 4.47643 3.65947 3.42993 1.29333 -39.2793 15.4518 1.03897 2.81256 7.81686 15.4422 0.202574 0.802598 15.7557 9.79572 
47.1947 90.9443 9.45949 99.246 -82.8925 104.672 -171.122 8.47839 90.7066 -53.8725 12.7116 -0.335278 52.4432 1.19313 13.83 58.0369 32.0615 0.264848 -177.298 26.4495 92.8617 -36.7149 -4.13331 -3.91027 67.2932 -2.60309 -1.36609 54.1507 4.73052 19.3138 -0.914652 7.74418 -90.9235 11.3667 -2.25057 -1.61252 -0.303153 -2.31936 -1.5119 -22.8397 -1.66203 -2.21429 -2.82705 -1.66202 -2.21428 79.2455 -52.0613 -116.176 25.4377 -1.1975 16.5778 -6.00072 -8.44908 -37.9916 -10.7492 -0.945425 5.10489 -104.635 -42.2138 53.7685 -25.5207 5.28612 3.09918 2.97924 1.48592 -37.5722 14.9864 1.02053 2.89935 7.08857 15.9143 0.0843385 1.64924 16.3673 10.3737 
48.6287 92.3204 16.4135 92.8099 -79.2848 96.852 -167.458 16.9921 90.6215 -55.6515 10.1681 -2.30317 50.9494 0.169476 14.434 55.3712 29.6166 1.52581 -178.142 21.2941 91.6973 -35.9238 -0.217841 -4.41362 69.6921 -3.34351 -1.7293 45.6171 3.06406 23.2313 -0.648578 7.72359 -90.7463 11.4159 -1.63878 -1.32101 -0.254563 -1.69533 -1.2476 -22.7891 -1.16606 -1.75239 -2.77645 -1.16606 -1.7524 78.9136 -51.8861 -116.724 26.6159 -1.59575 15.1385 -5.33143 -8.08745 -37.9527 -11.1632 -1.0311 5.69619 -105.139 -42.3864 53.0917 -27.3951 6.42023 3.00365 3.94049 4.606 -35.3543 13.9824 1.04508 3.52042 6.88279 14.2177 -0.00749383 3.27848 14.7715 9.21422 
50.7603 93.8571 23.5018 85.6223 -74.3254 88.4767 -165.944 23.8326 88.7353 -45.7512 6.73311 -4.19186 55.7565 3.00214 12.1527 58.3249 31.9118 -0.538299 -178.883 15.0186 90.6901 -31.3017 4.02326 -4.92205 71.0052 -3.56401 -1.82261 41.7154 1.88994 21.2083 -0.326592 7.56014 -90.4756 11.7509 -0.872925 -0.856677 0.0799377 -0.909783 -0.817445 -22.4542 -0.575118 -1.07941 -2.44155 -0.575115 -1.07941 78.915 -51.4639 -116.892 27.8415 -4.37297 14.8255 -6.73829 -10.7954 -40.7467 -10.8028 -0.972819 5.3393 -104.762 -41.9715 53.4555 -30.0948 7.8924 4.139 3.83852 6.69091 -32.9141 12.8127 1.0343 4.03735 6.35972 10.9032 -2.02977 4.60618 12.0898 9.87317 
53.3564 94.6197 30.6255 81.7642 -70.0518 83.9844 -166.842 27.439 87.6721 -28.8757 0.744313 -4.70369 59.1522 5.1965 11.9825 59.9983 33.13 -1.69916 179.456 8.69629 89.605 -26.3146 6.36642 -4.09172 71.4092 -3.72434 -1.8898 43.3244 2.14664 18.916 0.0449894 7.40051 -90.2116 12.0716 -0.0105092 -0.420599 0.400555 -0.0290169 -0.419734 -22.1341 0.116376 -0.404318 -2.12143 0.116375 -0.404313 80.2928 -50.1735 -115.396 28.7795 -6.7049 14.5895 -9.10533 -11.4469 -45.4299 -9.67611 -0.80814 4.34287 -103.4 -42.1023 55.597 -32.678 9.14065 7.06565 3.88348 8.13834 -32.8249 13.1485 1.12812 4.54864 7.51269 7.90113 -2.62674 4.56743 9.13007 8.52485 
56.8684 94.1767 37.4778 78.1042 -68.1991 81.2815 -171.76 29.2212 89.9689 -10.1241 0.962829 -2.52276 59.0416 5.09463 12.5579 59.2247 32.4473 -1.45407 177.511 3.66296 89.0326 -23.3555 5.87425 -2.65895 71.1877 -3.95797 -2.00294 47.1395 2.92365 17.8283 0.502977 7.32451 -90.0985 12.2264 0.953123 -0.302989 0.555731 0.938866 -0.344656 -21.9822 1.00012 -0.00250531 -1.96952 1.00012 -0.00249782 79.8363 -48.9333 -116.565 26.7227 -9.33231 13.9115 -9.90869 -11.7206 -49.1342 -10.482 -0.848276 4.07678 -102.122 -42.2698 57.6442 -34.7329 8.00187 9.82816 4.31167 8.78674 -31.5284 10.9407 0.865845 3.80805 9.98604 5.32766 -1.88359 3.90274 6.12639 5.15656 
60.9665 92.9879 44.5507 76.4738 -69.1024 80.5936 -174.006 32.3682 93.0299 -6.66535 5.55596 -0.813684 62.0848 6.2733 13.6779 58.4694 30.5624 -4.17888 176.665 -0.0744259 88.3564 -24.4531 2.65594 -3.02567 68.8677 -3.75942 -1.9572 53.8616 3.91833 14.7733 0.952817 7.28828 -89.9329 12.2997 1.92553 -0.0830788 0.630156 1.92 -0.167782 -21.9159 1.86145 0.499677 -1.90329 1.86144 0.499662 80.644 -46.9551 -116.161 26.1497 -11.2412 11.3384 -10.9094 -13.9663 -49.2379 -11.524 -0.999438 4.97939 -101.184 -42.6617 59.2684 -36.1604 6.54184 13.4595 4.11448 8.53421 -29.0256 9.74301 0.720867 3.26465 11.7407 4.12558 -3.57771 2.80093 5.38008 5.85727 
66.4183 91.71 52.3369 76.303 -67.9069 78.9658 -172.087 34.853 91.6472 -15.9785 5.63041 -2.56141 55.1334 -0.425351 10.8606 53.9993 24.1929 -10.5797 176.352 -1.59074 85.7835 -30.8505 -1.52241 -5.3968 62.4887 -1.97803 -1.02359 59.0136 5.43893 16.994 1.04986 7.19873 -89.557 12.4746 2.29695 0.621575 0.80563 2.32209 0.519819 -21.7417 2.00391 1.2834 -1.72906 2.0039 1.28337 80.7284 -48.032 -115.594 24.5427 -10.5898 10.6201 -11.3072 -14.8926 -47.6019 -11.2952 -1.00165 5.18618 -101.627 -42.8536 58.6715 -37.1843 6.26971 15.8774 3.18129 9.70552 -24.5062 9.3346 0.835186 4.63981 12.0555 2.58553 -4.03543 1.73919 3.85932 4.70178 
72.396 91.2009 59.8412 78.9077 -63.0602 78.9743 -170.08 34.9317 86.7492 -26.8406 11.4616 -4.57439 54.8107 0.330489 13.5971 52.8847 18.4155 -29.2747 177.473 2.51449 83.7007 -43.3004 2.53988 -6.6111 44.141 1.78542 2.06773 48.5039 4.02978 18.115 0.800237 7.198 -89.1852 12.4632 1.97757 1.40018 0.793077 2.03728 1.31176 -21.7433 1.46543 1.92974 -1.73066 1.46542 1.92973 80.2828 -49.0021 -115.872 25.3644 -8.6973 12.339 -10.6946 -14.5125 -45.5442 -11.7744 -1.08158 5.74139 -102.134 -42.4862 57.7235 -36.8932 6.94232 14.5881 1.95269 11.1631 -19.9716 5.7595 0.526737 4.26524 11.8063 0.985664 -4.06011 0.754838 2.19353 3.84764 
78.1277 91.8791 66.2196 81.9379 -60.0502 81.1321 -170.793 30.5395 84.3475 -31.4613 12.5628 -4.28268 59.8346 5.95852 16.7365 43.7473 11.7181 -36.1642 178.953 11.3092 84.6528 -58.7602 6.22128 -6.34533 39.8938 1.82995 2.24432 32.6657 -0.193204 11.9256 0.570054 7.29757 -89.2065 12.2671 1.50911 1.41457 0.596325 1.56991 1.34677 -21.9363 1.01428 1.80264 -1.92362 1.01428 1.80264 80.6563 -48.2796 -115.601 26.8144 -9.02572 12.2872 -9.95376 -15.4542 -42.9341 -7.96963 -0.754355 5.07976 -102.832 -42.137 56.4883 -36.1592 6.67688 13.2721 2.4874 9.11765 -22.5466 4.49437 0.347958 2.96439 10.6366 0.733819 -2.71747 0.986707 1.58752 3.56727 
83.6426 93.4913 72.2062 83.6643 -57.0514 83.5682 -173.201 23.6363 83.7956 -29.7016 11.7922 -2.43406 62.2068 8.49301 16.7829 43.6261 11.5191 -37.4209 -179.863 20.9792 88.0903 -63.765 8.24734 -5.41977 47.875 -0.125766 0.292374 39.6692 1.20574 16.122 0.344829 7.36307 -89.4323 12.1425 0.954003 1.02725 0.471521 0.998283 0.984253 -22.0617 0.601212 1.26645 -2.04906 0.601199 1.26644 80.8553 -49.1452 -114.959 27.1353 -9.43692 12.5245 -9.80134 -16.0714 -41.8996 -6.86884 -0.645597 4.53152 -103.217 -42.144 55.8998 -33.6327 6.77388 10.6067 3.99501 8.33332 -28.8807 8.17311 0.608506 3.19362 9.47857 0.633358 -1.42242 1.20442 1.16414 3.29166 
89.1264 95.0596 77.9411 83.8885 -53.5961 85.1918 -174.46 16.366 84.2109 -24.967 12.8761 -1.34571 62.5097 9.03162 16.7414 46.1642 13.1628 -35.7115 -179.555 26.9734 90.6467 -54.4653 9.59557 -3.84162 58.8782 -2.26562 -1.3184 43.9478 2.14386 16.9956 0.03692 7.32291 -89.7048 12.2272 0.213271 0.565429 0.556164 0.237962 0.555487 -21.978 0.0334868 0.603384 -1.96532 0.0334776 0.603381 81.3853 -49.1819 -114.151 28.7277 -9.61432 13.3504 -9.71105 -15.8291 -42.0638 -5.99886 -0.584187 4.47367 -103.026 -41.7384 55.9989 -31.0041 5.33382 7.74662 6.59601 7.58943 -36.7919 11.524 1.04925 4.99299 7.82999 0.98377 -0.856625 1.82856 1.41962 3.70293 
94.3792 95.5521 83.9749 83.3304 -49.4675 85.413 -174.526 10.1233 84.5336 -21.6775 12.803 -0.898415 66.1889 10.918 13.5126 40.4539 10.3288 -29.2879 -179.428 28.7644 90.6831 -33.7532 11.7944 -1.60558 62.0278 -2.45974 -1.38532 46.4134 2.3524 13.683 -0.335691 7.26074 -89.8492 12.353 -0.59552 0.368508 0.682094 -0.578741 0.394354 -21.854 -0.678735 0.17249 -1.84136 -0.678744 0.17248 81.4475 -50.4622 -113.573 28.9287 -8.97888 14.7241 -9.51644 -14.5853 -43.5327 -3.63234 -0.400412 3.67444 -102.812 -40.8711 55.9129 -27.6963 4.86154 4.48365 6.95706 5.01972 -43.1392 11.8179 0.791308 2.71109 8.01591 0.876743 -1.57157 1.32967 1.50139 4.43005 
99.5082 94.7184 90.3714 83.2769 -45.4847 84.7605 -174.296 4.2127 84.8695 -19.9169 16.9795 -0.943954 66.9701 14.1786 17.5913 48.9776 15.1618 -33.62 -178.349 27.9201 88.7676 -10.1489 10.8368 -1.00912 64.1946 -2.00862 -1.08977 51.3961 3.32374 13.9671 -0.661981 7.21412 -89.8344 12.4487 -1.23652 0.472518 0.778262 -1.21451 0.526475 -21.7615 -1.32137 0.0789825 -1.74889 -1.32136 0.0789793 80.9127 -51.9823 -113.792 28.5209 -8.4921 16.5057 -9.41535 -13.6233 -44.1117 -4.43971 -0.438891 3.49316 -102.431 -40.1372 56.1509 -24.5783 4.90523 0.807618 8.33388 4.92365 -48.5618 12.482 0.815879 2.57292 8.79093 0.4886 -2.12608 0.594968 1.22471 4.47055 
